<?xml version="1.0" standalone="no"?>
<!DOCTYPE svg PUBLIC "-//W3C//DTD SVG 20010904//EN"
 "http://www.w3.org/TR/2001/REC-SVG-20010904/DTD/svg10.dtd">
<svg version="1.0" xmlns="http://www.w3.org/2000/svg"
 width="1506.000000pt" height="1671.000000pt" viewBox="0 0 1506.000000 1671.000000"
 preserveAspectRatio="xMidYMid meet">

<g transform="translate(0.000000,1671.000000) scale(0.100000,-0.100000)"
fill="#000000" stroke="none">
<path d="M12370 16605 c-80 -13 -188 -31 -240 -41 -216 -37 -249 -43 -345 -58
-291 -46 -490 -80 -573 -97 -51 -10 -108 -19 -126 -19 -18 0 -64 -6 -102 -14
-89 -18 -200 -37 -539 -91 -148 -23 -271 -45 -350 -60 -38 -8 -106 -19 -150
-24 -119 -16 -198 -29 -320 -51 -60 -12 -153 -27 -205 -35 -52 -7 -149 -23
-215 -35 -185 -33 -275 -48 -335 -55 -54 -6 -122 -18 -325 -55 -55 -10 -122
-21 -150 -25 -79 -10 -356 -55 -405 -66 -25 -6 -90 -17 -145 -25 -140 -20
-202 -30 -340 -54 -66 -12 -160 -28 -210 -35 -195 -29 -234 -36 -340 -55 -60
-11 -155 -27 -210 -35 -190 -28 -230 -35 -335 -54 -146 -28 -211 -38 -310 -51
-47 -6 -116 -17 -155 -25 -102 -20 -288 -52 -380 -66 -113 -16 -163 -24 -300
-49 -66 -13 -138 -24 -160 -26 -46 -5 -185 -28 -330 -54 -150 -27 -270 -47
-365 -60 -47 -6 -130 -20 -185 -30 -101 -19 -205 -36 -395 -66 -99 -15 -256
-43 -363 -64 -27 -6 -63 -10 -80 -10 -31 0 -80 -8 -302 -50 -121 -23 -205 -36
-305 -50 -41 -5 -113 -17 -160 -25 -207 -38 -261 -47 -360 -60 -58 -8 -154
-24 -215 -35 -128 -24 -201 -36 -305 -50 -41 -6 -124 -19 -185 -31 -60 -11
-144 -27 -185 -34 -41 -8 -118 -19 -170 -25 -52 -6 -142 -20 -200 -31 -195
-37 -265 -49 -410 -70 -80 -11 -161 -24 -180 -29 -19 -5 -66 -14 -105 -20 -91
-14 -268 -39 -278 -40 -4 0 -12 10 -17 23 -5 13 -9 -2918 -9 -7285 l-1 -7308
7530 0 7530 0 0 7961 c0 6869 -2 7960 -14 7950 -17 -14 -65 -1 -546 148 -74
23 -164 50 -200 60 -66 18 -240 70 -470 141 -69 21 -186 57 -260 80 -74 23
-148 45 -165 50 -59 16 -404 119 -585 176 -220 69 -252 71 -450 39z"/>
</g>
</svg>
