<?xml version="1.0" standalone="no"?>
<!DOCTYPE svg PUBLIC "-//W3C//DTD SVG 20010904//EN"
 "http://www.w3.org/TR/2001/REC-SVG-20010904/DTD/svg10.dtd">
<svg version="1.0" xmlns="http://www.w3.org/2000/svg"
 width="1512.000000pt" height="1664.000000pt" viewBox="0 0 1512.000000 1664.000000"
 preserveAspectRatio="xMidYMid meet">

<g transform="translate(0.000000,1664.000000) scale(0.100000,-0.100000)"
fill="#000000" stroke="none">
<path d="M1885 16489 c-44 -11 -102 -24 -130 -29 -27 -5 -70 -14 -95 -19 -170
-37 -542 -114 -575 -121 -22 -4 -96 -19 -165 -34 -69 -15 -168 -36 -220 -46
-52 -11 -126 -26 -165 -35 -138 -30 -312 -66 -422 -87 l-113 -22 0 -8048 0
-8048 7560 0 7560 0 0 2048 c0 1126 -3 4743 -7 8039 l-6 5992 -56 6 c-31 3
-92 10 -136 15 -44 5 -127 14 -185 20 -58 6 -154 18 -215 25 -60 8 -155 19
-210 25 -220 23 -295 32 -400 45 -60 8 -155 19 -210 25 -138 15 -249 27 -390
44 -66 8 -165 20 -220 26 -170 18 -265 29 -390 44 -66 8 -167 20 -225 26 -58
6 -139 15 -180 20 -41 5 -136 16 -210 25 -74 8 -172 20 -217 26 -58 8 -123 8
-225 0 -213 -16 -716 -48 -1123 -71 -104 -6 -284 -17 -400 -25 -198 -13 -314
-20 -742 -45 -98 -6 -277 -17 -398 -25 -263 -17 -483 -31 -740 -45 -104 -6
-284 -17 -400 -25 -115 -8 -295 -19 -400 -25 -104 -6 -255 -16 -335 -22 -189
-14 -476 -14 -615 0 -60 6 -177 16 -260 22 -82 6 -224 17 -315 25 -91 8 -230
19 -310 25 -234 17 -394 30 -575 45 -93 8 -235 19 -315 25 -240 18 -396 30
-575 45 -93 8 -235 19 -315 25 -237 17 -395 30 -575 45 -171 14 -312 25 -590
45 -82 6 -217 18 -300 26 -202 19 -369 17 -470 -7z"/>
</g>
</svg>
