<?xml version="1.0" standalone="no"?>
<!DOCTYPE svg PUBLIC "-//W3C//DTD SVG 20010904//EN"
 "http://www.w3.org/TR/2001/REC-SVG-20010904/DTD/svg10.dtd">
<svg version="1.0" xmlns="http://www.w3.org/2000/svg"
 width="1506.000000pt" height="1671.000000pt" viewBox="0 0 1506.000000 1671.000000"
 preserveAspectRatio="xMidYMid meet">

<g transform="translate(0.000000,1671.000000) scale(0.100000,-0.100000)"
fill="#000000" stroke="none">
<path d="M2437 16624 c-3 -3 -63 -23 -134 -44 -411 -122 -652 -195 -763 -230
-69 -21 -150 -46 -180 -54 -59 -15 -219 -64 -421 -127 -70 -22 -157 -48 -195
-58 -73 -20 -229 -67 -434 -131 -69 -22 -158 -48 -197 -59 -40 -11 -77 -22
-82 -26 -5 -3 -14 3 -20 12 -7 12 -10 -2471 -11 -7944 l0 -7963 7530 0 7530 0
-1 7308 c0 4522 -4 7298 -10 7284 -8 -22 -13 -23 -66 -17 -57 6 -161 22 -318
50 -83 15 -204 35 -335 55 -135 21 -184 29 -295 50 -60 11 -157 27 -215 35
-58 8 -181 28 -274 45 -93 16 -206 34 -250 40 -45 6 -115 17 -156 25 -146 28
-247 45 -380 64 -74 11 -198 32 -275 46 -77 14 -189 32 -250 40 -60 9 -159 24
-220 35 -60 11 -146 27 -190 34 -44 8 -132 22 -195 31 -63 9 -146 22 -185 30
-135 25 -251 45 -325 55 -103 14 -176 26 -305 50 -60 11 -144 25 -185 31 -41
6 -140 22 -220 36 -150 27 -181 32 -315 52 -44 6 -123 19 -175 27 -91 15 -139
24 -330 59 -47 8 -100 15 -118 15 -18 0 -63 6 -100 14 -112 24 -291 55 -592
102 -58 9 -136 22 -175 29 -76 14 -216 37 -335 55 -127 19 -181 28 -295 50
-60 11 -146 25 -190 30 -44 5 -129 18 -190 30 -60 11 -168 29 -240 40 -208 33
-313 50 -420 70 -55 11 -161 29 -235 40 -74 11 -214 33 -310 50 -96 17 -218
37 -270 44 -52 8 -187 30 -300 49 -113 19 -230 38 -260 42 -30 4 -98 15 -150
25 -173 32 -274 50 -350 60 -103 14 -176 26 -305 50 -60 11 -157 27 -215 35
-100 14 -170 25 -360 60 -47 8 -132 22 -190 30 -58 8 -143 22 -190 31 -47 8
-125 22 -173 29 -49 8 -98 17 -109 20 -10 4 -52 10 -91 15 -40 4 -166 24 -282
45 -115 20 -239 40 -275 45 -36 4 -132 20 -213 34 -147 26 -208 31 -220 20z"/>
</g>
</svg>
